<svg xmlns="http://www.w3.org/2000/svg">
  <symbol id="icon-social-tg" enable-background="new 0 0 24 24" viewBox="0 0 24 24" xmlns="http://www.w3.org/2000/svg">
    <circle cx="12" cy="12" fill="#039be5" r="12"/><path d="m5.491 11.74 11.57-4.461c.537-.194 1.006.131.832.943l.001-.001-1.97 9.281c-.146.658-.537.818-1.084.508l-3-2.211-1.447 1.394c-.16.16-.295.295-.605.295l.213-3.053 5.56-5.023c.242-.213-.054-.333-.373-.121l-6.871 4.326-2.962-.924c-.643-.204-.657-.643.136-.953z" fill="#fff"/>
  </symbol>
  <symbol id="icon-social-vk" version="1.1" xmlns="http://www.w3.org/2000/svg" xmlns:xlink="http://www.w3.org/1999/xlink" x="0px" y="0px" viewBox="0 0 112.196 112.196" style="enable-background:new 0 0 112.196 112.196;" xml:space="preserve">
    <g><g><circle id="XMLID_11_" style="fill:#4D76A1;" cx="56.098" cy="56.098" r="56.098"/></g><path style="fill-rule:evenodd;clip-rule:evenodd;fill:#FFFFFF;" d="M53.979,80.702h4.403c0,0,1.33-0.146,2.009-0.878 c0.625-0.672,0.605-1.934,0.605-1.934s-0.086-5.908,2.656-6.778c2.703-0.857,6.174,5.71,9.853,8.235 c2.782,1.911,4.896,1.492,4.896,1.492l9.837-0.137c0,0,5.146-0.317,2.706-4.363c-0.2-0.331-1.421-2.993-7.314-8.463 c-6.168-5.725-5.342-4.799,2.088-14.702c4.525-6.031,6.334-9.713,5.769-11.29c-0.539-1.502-3.867-1.105-3.867-1.105l-11.076,0.069 c0,0-0.821-0.112-1.43,0.252c-0.595,0.357-0.978,1.189-0.978,1.189s-1.753,4.667-4.091,8.636c-4.932,8.375-6.904,8.817-7.71,8.297 c-1.875-1.212-1.407-4.869-1.407-7.467c0-8.116,1.231-11.5-2.397-12.376c-1.204-0.291-2.09-0.483-5.169-0.514 c-3.952-0.041-7.297,0.012-9.191,0.94c-1.26,0.617-2.232,1.992-1.64,2.071c0.732,0.098,2.39,0.447,3.269,1.644 c1.135,1.544,1.095,5.012,1.095,5.012s0.652,9.554-1.523,10.741c-1.493,0.814-3.541-0.848-7.938-8.446 c-2.253-3.892-3.954-8.194-3.954-8.194s-0.328-0.804-0.913-1.234c-0.71-0.521-1.702-0.687-1.702-0.687l-10.525,0.069 c0,0-1.58,0.044-2.16,0.731c-0.516,0.611-0.041,1.875-0.041,1.875s8.24,19.278,17.57,28.993 C44.264,81.287,53.979,80.702,53.979,80.702L53.979,80.702z"/></g>
  </symbol>
  <symbol id="icon-logo-synergy" xmlns="http://www.w3.org/2000/svg" fill="none" viewBox="0 0 47 49">
    <path fill="#ED131C" d="M0 .95v48h47v-48H0ZM40.28 42.1H6.71V7.81h33.57v34.28Z"></path><path fill="#ED131C" d="m28.92 29.76-4.87-4.8 4.87-4.68V10.8L14.46 24.95 28.92 39.1v-9.34Z"></path>
  </symbol>
  <symbol id="icon-logo-my-games" xmlns='http://www.w3.org/2000/svg' fill='none' viewBox='0 0 59 36'>
    <g fill='#000' fill-rule='evenodd' clip-rule='evenodd'><path d='m32.39.827-8.574 9.43L15.252.84 0 17.616l6.537 7.19 8.614-9.474 8.58 9.438 8.618-9.48 3.458 3.814-8.613 9.475 6.589 7.248L59 8.087 52.41.84 42.408 11.845zM50.233 23.56a.6.6 0 0 1-.196.026h-.186v-.423h.176q.172 0 .25.043.078.044.077.171 0 .135-.12.183m.306.555-.003-.086v-.086a.32.32 0 0 0-.064-.18.28.28 0 0 0-.2-.115.4.4 0 0 0 .168-.057q.115-.075.115-.23 0-.221-.182-.297a.9.9 0 0 0-.319-.042h-.41v1.169h.207v-.46h.162q.164 0 .23.038.11.064.11.267v.093l.004.037.003.013.003.012h.193l-.007-.015a.2.2 0 0 1-.01-.06m-.465.416a.92.92 0 0 1-.918-.917.919.919 0 0 1 1.836 0 .92.92 0 0 1-.918.917m0-1.983a1.066 1.066 0 1 0-.001 2.132 1.066 1.066 0 0 0 .001-2.132'/></g>
  </symbol>
  <symbol id="icon-arrow-down" viewBox="0 0 512 512" xmlns="http://www.w3.org/2000/svg">
    <g fill="currentColor" id="chevron-down-Bold">
      <path id="chevron-down-Bold-2" d="m463.083 185.75-192 192a21.325 21.325 0 0 1 -30.166 0l-192-192a21.331 21.331 0 1 1 30.166-30.167l176.917 176.917 176.917-176.917a21.331 21.331 0 1 1 30.166 30.167z" data-name="chevron-down-Bold"/>
    </g>
  </symbol>

</svg>