<svg xmlns="http://www.w3.org/2000/svg">
  <symbol id="icon-mysql" enable-background="new 0 0 512 512" viewBox="0 0 512 512" xmlns="http://www.w3.org/2000/svg">
    <g clip-rule="evenodd" fill="#00758f" fill-rule="evenodd"><path d="m116.411 90.81c-5.907 0-10.071.709-14.277 1.748v.701h.683c2.812 5.559 7.687 9.413 11.146 14.285 2.805 5.573 5.239 11.124 8.021 16.697.349-.338.683-.701.683-.701 4.905-3.466 7.339-9.039 7.339-17.41-2.1-2.449-2.435-4.868-4.185-7.313-2.086-3.476-6.62-5.217-9.41-8.007"/><path d="m471.608 393.435c-27.872-.698-49.452 2.085-67.559 9.751-5.225 2.086-13.566 2.086-14.285 8.705 2.804 2.783 3.138 7.302 5.595 11.153 4.171 6.961 11.466 16.348 18.099 21.239 7.31 5.573 14.627 11.124 22.299 16 13.566 8.392 28.897 13.245 42.107 21.609 7.687 4.868 15.324 11.131 23.012 16.369 3.815 2.784 6.234 7.317 11.124 9.039v-1.053c-2.449-3.124-3.139-7.651-5.559-11.153-3.481-3.459-6.968-6.612-10.456-10.078-10.107-13.58-22.655-25.409-36.206-35.16-11.153-7.68-35.545-18.129-40.05-30.975 0 0-.363-.37-.705-.712 7.658-.705 16.733-3.495 24.036-5.609 11.821-3.124 22.619-2.42 34.804-5.544 5.58-1.403 11.153-3.154 16.748-4.868v-3.153c-6.3-6.257-10.805-14.627-17.424-20.541-17.744-15.317-37.267-30.277-57.46-42.833-10.812-6.968-24.741-11.473-36.235-17.41-4.156-2.092-11.117-3.124-13.565-6.626-6.271-7.658-9.765-17.744-14.285-26.811-10.085-19.132-19.858-40.363-28.548-60.595-6.263-13.573-10.1-27.142-17.758-39.686-35.886-59.211-74.876-95.058-134.77-130.236-12.89-7.328-28.206-10.456-44.562-14.285-8.719-.367-17.417-1.042-26.122-1.384-5.58-2.449-11.161-9.071-16.029-12.203-19.856-12.532-71.024-39.689-85.658-3.828-9.402 22.648 13.929 44.926 21.943 56.42 5.915 8 13.588 17.068 17.744 26.11 2.441 5.922 3.139 12.199 5.588 18.459 5.565 15.32 10.783 32.389 18.107 46.674 3.822 7.313 7.992 14.986 12.868 21.569 2.812 3.855 7.673 5.573 8.719 11.862-4.861 6.953-5.239 17.401-8.021 26.113-12.527 39.353-7.658 88.104 10.107 117.001 5.559 8.704 18.805 27.865 36.57 20.534 15.665-6.256 12.185-26.107 16.712-43.509 1.039-4.207.341-6.968 2.426-9.75v.705c4.868 9.736 9.758 19.117 14.285 28.897 10.805 17.046 29.595 34.811 45.282 46.641 8.334 6.292 14.953 17.067 25.401 20.911v-1.053h-.69c-2.093-3.124-5.217-4.527-8.007-6.954-6.271-6.27-13.217-13.936-18.114-20.897-14.619-19.494-27.523-41.096-38.989-63.381-5.588-10.819-10.448-22.648-14.983-33.439-2.085-4.156-2.085-10.445-5.573-12.527-5.239 7.652-12.876 14.278-16.704 23.652-6.62 14.989-7.309 33.445-9.765 52.606-1.388.363-.691 0-1.388.69-11.132-2.783-14.961-14.27-19.154-23.992-10.441-24.755-12.199-64.453-3.132-93.008 2.427-7.298 12.905-30.281 8.705-37.245-2.1-6.645-9.061-10.437-12.883-15.684-4.519-6.616-9.424-14.957-12.527-22.285-8.363-19.495-12.562-41.093-21.587-60.588-4.185-9.068-11.509-18.474-17.41-26.815-6.634-9.406-13.936-16.018-19.168-27.149-1.729-3.841-4.17-10.111-1.395-14.278.691-2.79 2.101-3.84 4.891-4.544 4.504-3.826 17.402 1.039 21.922 3.131 12.89 5.206 23.687 10.111 34.47 17.409 4.882 3.492 10.107 10.103 16.363 11.862h7.324c11.138 2.416 23.687.675 34.142 3.821 18.441 5.915 35.153 14.623 50.135 24.025 45.601 28.908 83.218 70.008 108.626 119.101 4.185 7.996 5.944 15.317 9.765 23.657 7.317 17.101 16.378 34.51 23.673 51.208 7.309 16.37 14.292 33.067 24.747 46.669 5.21 7.303 26.114 11.132 35.517 14.968 6.946 3.125 17.758 5.915 24.029 9.737 11.844 7.303 23.658 15.673 34.819 23.695 5.559 4.176 22.976 12.874 24.022 19.849"/></g>
  </symbol>
  <symbol id="icon-csharp" xmlns="http://www.w3.org/2000/svg" xmlns:xlink="http://www.w3.org/1999/xlink" version="1.1" x="0px" y="0px" viewBox="0 0 512 512" style="enable-background:new 0 0 512 512;" xml:space="preserve">
    <g><path style="fill:#B14796;" d="M483.752,150.527c-0.004-8.609-1.845-16.216-5.569-22.744c-3.657-6.42-9.133-11.801-16.482-16.056 C401.055,76.758,340.351,41.896,279.723,6.891c-16.345-9.435-32.192-9.091-48.416,0.48 C207.169,21.607,86.312,90.848,50.299,111.708c-14.833,8.585-22.05,21.724-22.053,38.804c-0.022,70.325,0,140.647-0.022,210.975 c0.003,8.419,1.766,15.879,5.325,22.309c3.66,6.614,9.213,12.144,16.729,16.493c36.017,20.86,156.89,90.097,181.023,104.336 c16.231,9.577,32.078,9.919,48.428,0.48c60.628-35.007,121.337-69.868,181.993-104.835c7.516-4.35,13.069-9.882,16.729-16.491 c3.555-6.432,5.321-13.891,5.325-22.311C483.776,361.469,483.776,220.854,483.752,150.527L483.752,150.527z"/><path style="fill:#782379;" d="M256.696,255.314L33.549,383.796c3.66,6.614,9.213,12.144,16.729,16.493 c36.017,20.86,156.89,90.097,181.023,104.336c16.231,9.577,32.078,9.919,48.428,0.48c60.628-35.007,121.337-69.868,181.993-104.835 c7.516-4.35,13.069-9.882,16.729-16.491L256.696,255.314z"/><path style="fill:#962C87;" d="M483.752,150.527c-0.004-8.609-1.845-16.216-5.569-22.744l-221.487,127.53L478.451,383.78 c3.555-6.432,5.321-13.891,5.325-22.311C483.776,361.469,483.776,220.854,483.752,150.527L483.752,150.527z"/><path style="fill:#FFFFFF;" d="M321.643,292.935C308.723,315.846,284.174,331.33,256,331.33c-28.002,0-52.412-15.29-65.397-37.958 c-6.307-11.016-9.934-23.769-9.934-37.373c0-41.604,33.728-75.33,75.332-75.33c27.822,0,52.102,15.099,65.152,37.536l65.843-37.916 c-26.171-45.175-75.031-75.57-130.995-75.57c-83.553,0-151.283,67.731-151.283,151.28c0,27.41,7.291,53.113,20.037,75.285 C150.859,376.699,199.859,407.28,256,407.28c56.243,0,105.321-30.703,131.388-76.253L321.643,292.935z"/><path style="fill:#FFFFFF;" d="M450.197,247.349v-14.962H438.04V220.23h-14.962v12.157h-18.236V220.23h-14.963v12.157h-12.157 v14.962h12.157v18.235h-12.157v14.964h12.157v12.155h14.963v-12.155h18.236v12.155h14.962v-12.155h12.158v-14.964H438.04v-18.235 H450.197z M423.078,265.584h-18.236v-18.235h18.236V265.584z"/></g>
  </symbol>
  <symbol id="icon-unity" viewBox="0 0 256 263" version="1.1" xmlns="http://www.w3.org/2000/svg" xmlns:xlink="http://www.w3.org/1999/xlink" preserveAspectRatio="xMidYMid">
    <g fill="#222C37">
      <path d="M166.872326,131.23686 L212.781118,51.9623472 L234.965569,131.23686 L212.781118,210.493243 L166.872326,131.23686 L166.872326,131.23686 Z M144.495923,144.110517 L190.412179,223.373299 L110.445569,202.886567 L52.6751399,144.110517 L144.495923,144.110517 L144.495923,144.110517 Z M190.401515,39.0780261 L144.495923,118.352539 L52.6751399,118.352539 L110.445569,59.5732891 L190.401515,39.0780261 L190.401515,39.0780261 Z M255.940714,104.258913 L227.932619,0.0603519323 L123.392808,27.9852677 L107.918186,55.1924919 L76.5167858,54.9674802 L0,131.244325 L76.5167858,207.50304 L76.519985,207.50304 L107.907522,207.270564 L123.404539,234.477788 L227.932619,262.398438 L255.940714,158.219072 L240.035264,131.23686 L255.940714,104.258913 L255.940714,104.258913 Z"></path>
    </g>
  </symbol>
  <symbol id="icon-git" enable-background="new 0 0 24 24" viewBox="0 0 24 24" xmlns="http://www.w3.org/2000/svg">
    <path d="m10.735 5.823c-.909.365-1.887.632-2.882.632-2.845-1.661-6.706.07-6.706 3.708h.001c0 1.356.856 3.215 2.194 3.67v.054c-.994.445-1.269 2.711.053 3.525v.054c-1.444.481-2.395 1.408-2.395 3.009 0 2.759 2.58 3.525 4.839 3.525 2.751 0 4.797-1.002 4.797-4.072 0-3.777-5.341-2.384-5.341-4.436 0-.723.381-1.002 1.041-1.141 2.194-.413 3.57-2.143 3.57-4.404 0-.391-.079-.761-.212-1.125.354-.08.698-.177 1.041-.295zm-4.949 13.116v-.001c.899 0 2.179.161 2.179 1.339 0 1.168-1.031 1.409-1.994 1.409-.915 0-2.29-.145-2.29-1.35.005-1.193 1.168-1.397 2.105-1.397zm-.169-6.937v-.001c-1.163 0-1.655-.696-1.655-1.81 0-2.641 3.226-2.614 3.226-.026-.001 1.087-.424 1.837-1.571 1.837z"/><path d="m23 17.277v-2.625c-.423.295-1.031.445-1.549.445-.978 0-1.153-.965-1.153-1.758v-4.88c1.677 0 2.698.054 2.698.054v-2.546h-2.698c0-.734-.027-1.467.079-2.207h-2.999c.095.546.079 1.013.079 2.207h-1.269v2.545c.883-.139.899-.054 1.269-.054v.054h-.026v4.698c0 2.33.333 4.591 3.162 4.591.794.001 1.704-.133 2.407-.524z"/><path d="m13.492 0c-1.057 0-1.824.931-1.824 1.966 0 1.018.777 1.94 1.824 1.94 1.02 0 1.787-.937 1.787-1.94 0-1.001-.741-1.966-1.787-1.966z"/><path d="m12.016 5.957c.095.792.085 10.699 0 11.668h2.936c-.085-.963-.095-10.886 0-11.668z"/>
  </symbol>
  <symbol id="icon-gitlab" xmlns="http://www.w3.org/2000/svg" xmlns:xlink="http://www.w3.org/1999/xlink" version="1.1" x="0px" y="0px" viewBox="0 0 512 512" style="enable-background:new 0 0 512 512;" xml:space="preserve">
    <g><path id="path66_17_" style="fill:#FFA100;" d="M29.653,201.648L29.653,201.648L0.957,289.816 c-2.599,8.006,0.208,16.843,7.07,21.834l247.972,180.183l-79.366-155.859L29.653,201.648L29.653,201.648z"/><path id="path66_6_" style="fill:#FFA100;" d="M482.347,201.648L482.347,201.648l28.696,88.168 c2.599,8.006-0.208,16.843-7.07,21.834L256.001,491.832l87.212-184.854L482.347,201.648L482.347,201.648z"/><path id="path58_18_" style="fill:#FF6D18;" d="M256,491.832l-0.001-178.6l-94.302-111.585l-65.97-32.822l-66.074,32.822 L256,491.832L256,491.832z"/><path id="path58_17_" style="fill:#FF6D18;" d="M256,491.832l0.001-189.402l94.302-100.783l71.367-32.822l60.677,32.822 L256,491.832L256,491.832z"/><path id="path50_10_" style="fill:#FC3819;" d="M256,491.832L256,491.832l94.302-290.185H161.698L256,491.832L256,491.832z"/><path id="path74_3_" style="fill:#FC3819;" d="M29.654,201.65h132.148L104.929,26.874c-2.911-8.942-15.596-8.942-18.611,0 L29.654,201.65L29.654,201.65z"/><path id="path86_3_" style="fill:#FC3819;" d="M482.346,201.65H350.198l56.769-174.776c2.911-8.942,15.596-8.942,18.611,0 L482.346,201.65L482.346,201.65z"/></g>
  </symbol>
</svg>