<svg xmlns="http://www.w3.org/2000/svg">
  <symbol id="icon-mysql" enable-background="new 0 0 512 512" viewBox="0 0 512 512" xmlns="http://www.w3.org/2000/svg">
    <g clip-rule="evenodd" fill="#00758f" fill-rule="evenodd"><path d="m116.411 90.81c-5.907 0-10.071.709-14.277 1.748v.701h.683c2.812 5.559 7.687 9.413 11.146 14.285 2.805 5.573 5.239 11.124 8.021 16.697.349-.338.683-.701.683-.701 4.905-3.466 7.339-9.039 7.339-17.41-2.1-2.449-2.435-4.868-4.185-7.313-2.086-3.476-6.62-5.217-9.41-8.007"/><path d="m471.608 393.435c-27.872-.698-49.452 2.085-67.559 9.751-5.225 2.086-13.566 2.086-14.285 8.705 2.804 2.783 3.138 7.302 5.595 11.153 4.171 6.961 11.466 16.348 18.099 21.239 7.31 5.573 14.627 11.124 22.299 16 13.566 8.392 28.897 13.245 42.107 21.609 7.687 4.868 15.324 11.131 23.012 16.369 3.815 2.784 6.234 7.317 11.124 9.039v-1.053c-2.449-3.124-3.139-7.651-5.559-11.153-3.481-3.459-6.968-6.612-10.456-10.078-10.107-13.58-22.655-25.409-36.206-35.16-11.153-7.68-35.545-18.129-40.05-30.975 0 0-.363-.37-.705-.712 7.658-.705 16.733-3.495 24.036-5.609 11.821-3.124 22.619-2.42 34.804-5.544 5.58-1.403 11.153-3.154 16.748-4.868v-3.153c-6.3-6.257-10.805-14.627-17.424-20.541-17.744-15.317-37.267-30.277-57.46-42.833-10.812-6.968-24.741-11.473-36.235-17.41-4.156-2.092-11.117-3.124-13.565-6.626-6.271-7.658-9.765-17.744-14.285-26.811-10.085-19.132-19.858-40.363-28.548-60.595-6.263-13.573-10.1-27.142-17.758-39.686-35.886-59.211-74.876-95.058-134.77-130.236-12.89-7.328-28.206-10.456-44.562-14.285-8.719-.367-17.417-1.042-26.122-1.384-5.58-2.449-11.161-9.071-16.029-12.203-19.856-12.532-71.024-39.689-85.658-3.828-9.402 22.648 13.929 44.926 21.943 56.42 5.915 8 13.588 17.068 17.744 26.11 2.441 5.922 3.139 12.199 5.588 18.459 5.565 15.32 10.783 32.389 18.107 46.674 3.822 7.313 7.992 14.986 12.868 21.569 2.812 3.855 7.673 5.573 8.719 11.862-4.861 6.953-5.239 17.401-8.021 26.113-12.527 39.353-7.658 88.104 10.107 117.001 5.559 8.704 18.805 27.865 36.57 20.534 15.665-6.256 12.185-26.107 16.712-43.509 1.039-4.207.341-6.968 2.426-9.75v.705c4.868 9.736 9.758 19.117 14.285 28.897 10.805 17.046 29.595 34.811 45.282 46.641 8.334 6.292 14.953 17.067 25.401 20.911v-1.053h-.69c-2.093-3.124-5.217-4.527-8.007-6.954-6.271-6.27-13.217-13.936-18.114-20.897-14.619-19.494-27.523-41.096-38.989-63.381-5.588-10.819-10.448-22.648-14.983-33.439-2.085-4.156-2.085-10.445-5.573-12.527-5.239 7.652-12.876 14.278-16.704 23.652-6.62 14.989-7.309 33.445-9.765 52.606-1.388.363-.691 0-1.388.69-11.132-2.783-14.961-14.27-19.154-23.992-10.441-24.755-12.199-64.453-3.132-93.008 2.427-7.298 12.905-30.281 8.705-37.245-2.1-6.645-9.061-10.437-12.883-15.684-4.519-6.616-9.424-14.957-12.527-22.285-8.363-19.495-12.562-41.093-21.587-60.588-4.185-9.068-11.509-18.474-17.41-26.815-6.634-9.406-13.936-16.018-19.168-27.149-1.729-3.841-4.17-10.111-1.395-14.278.691-2.79 2.101-3.84 4.891-4.544 4.504-3.826 17.402 1.039 21.922 3.131 12.89 5.206 23.687 10.111 34.47 17.409 4.882 3.492 10.107 10.103 16.363 11.862h7.324c11.138 2.416 23.687.675 34.142 3.821 18.441 5.915 35.153 14.623 50.135 24.025 45.601 28.908 83.218 70.008 108.626 119.101 4.185 7.996 5.944 15.317 9.765 23.657 7.317 17.101 16.378 34.51 23.673 51.208 7.309 16.37 14.292 33.067 24.747 46.669 5.21 7.303 26.114 11.132 35.517 14.968 6.946 3.125 17.758 5.915 24.029 9.737 11.844 7.303 23.658 15.673 34.819 23.695 5.559 4.176 22.976 12.874 24.022 19.849"/></g>
  </symbol>
  <symbol id="icon-csharp" xmlns="http://www.w3.org/2000/svg" xmlns:xlink="http://www.w3.org/1999/xlink" version="1.1" x="0px" y="0px" viewBox="0 0 512 512" style="enable-background:new 0 0 512 512;" xml:space="preserve">
    <g><path style="fill:#B14796;" d="M483.752,150.527c-0.004-8.609-1.845-16.216-5.569-22.744c-3.657-6.42-9.133-11.801-16.482-16.056 C401.055,76.758,340.351,41.896,279.723,6.891c-16.345-9.435-32.192-9.091-48.416,0.48 C207.169,21.607,86.312,90.848,50.299,111.708c-14.833,8.585-22.05,21.724-22.053,38.804c-0.022,70.325,0,140.647-0.022,210.975 c0.003,8.419,1.766,15.879,5.325,22.309c3.66,6.614,9.213,12.144,16.729,16.493c36.017,20.86,156.89,90.097,181.023,104.336 c16.231,9.577,32.078,9.919,48.428,0.48c60.628-35.007,121.337-69.868,181.993-104.835c7.516-4.35,13.069-9.882,16.729-16.491 c3.555-6.432,5.321-13.891,5.325-22.311C483.776,361.469,483.776,220.854,483.752,150.527L483.752,150.527z"/><path style="fill:#782379;" d="M256.696,255.314L33.549,383.796c3.66,6.614,9.213,12.144,16.729,16.493 c36.017,20.86,156.89,90.097,181.023,104.336c16.231,9.577,32.078,9.919,48.428,0.48c60.628-35.007,121.337-69.868,181.993-104.835 c7.516-4.35,13.069-9.882,16.729-16.491L256.696,255.314z"/><path style="fill:#962C87;" d="M483.752,150.527c-0.004-8.609-1.845-16.216-5.569-22.744l-221.487,127.53L478.451,383.78 c3.555-6.432,5.321-13.891,5.325-22.311C483.776,361.469,483.776,220.854,483.752,150.527L483.752,150.527z"/><path style="fill:#FFFFFF;" d="M321.643,292.935C308.723,315.846,284.174,331.33,256,331.33c-28.002,0-52.412-15.29-65.397-37.958 c-6.307-11.016-9.934-23.769-9.934-37.373c0-41.604,33.728-75.33,75.332-75.33c27.822,0,52.102,15.099,65.152,37.536l65.843-37.916 c-26.171-45.175-75.031-75.57-130.995-75.57c-83.553,0-151.283,67.731-151.283,151.28c0,27.41,7.291,53.113,20.037,75.285 C150.859,376.699,199.859,407.28,256,407.28c56.243,0,105.321-30.703,131.388-76.253L321.643,292.935z"/><path style="fill:#FFFFFF;" d="M450.197,247.349v-14.962H438.04V220.23h-14.962v12.157h-18.236V220.23h-14.963v12.157h-12.157 v14.962h12.157v18.235h-12.157v14.964h12.157v12.155h14.963v-12.155h18.236v12.155h14.962v-12.155h12.158v-14.964H438.04v-18.235 H450.197z M423.078,265.584h-18.236v-18.235h18.236V265.584z"/></g>
  </symbol>
  <symbol id="icon-unity" viewBox="0 0 256 263" version="1.1" xmlns="http://www.w3.org/2000/svg" xmlns:xlink="http://www.w3.org/1999/xlink" preserveAspectRatio="xMidYMid">
    <g fill="#222C37">
      <path d="M166.872326,131.23686 L212.781118,51.9623472 L234.965569,131.23686 L212.781118,210.493243 L166.872326,131.23686 L166.872326,131.23686 Z M144.495923,144.110517 L190.412179,223.373299 L110.445569,202.886567 L52.6751399,144.110517 L144.495923,144.110517 L144.495923,144.110517 Z M190.401515,39.0780261 L144.495923,118.352539 L52.6751399,118.352539 L110.445569,59.5732891 L190.401515,39.0780261 L190.401515,39.0780261 Z M255.940714,104.258913 L227.932619,0.0603519323 L123.392808,27.9852677 L107.918186,55.1924919 L76.5167858,54.9674802 L0,131.244325 L76.5167858,207.50304 L76.519985,207.50304 L107.907522,207.270564 L123.404539,234.477788 L227.932619,262.398438 L255.940714,158.219072 L240.035264,131.23686 L255.940714,104.258913 L255.940714,104.258913 Z"></path>
    </g>
  </symbol>
  <symbol id="icon-git" enable-background="new 0 0 24 24" viewBox="0 0 24 24" xmlns="http://www.w3.org/2000/svg">
    <path d="m10.735 5.823c-.909.365-1.887.632-2.882.632-2.845-1.661-6.706.07-6.706 3.708h.001c0 1.356.856 3.215 2.194 3.67v.054c-.994.445-1.269 2.711.053 3.525v.054c-1.444.481-2.395 1.408-2.395 3.009 0 2.759 2.58 3.525 4.839 3.525 2.751 0 4.797-1.002 4.797-4.072 0-3.777-5.341-2.384-5.341-4.436 0-.723.381-1.002 1.041-1.141 2.194-.413 3.57-2.143 3.57-4.404 0-.391-.079-.761-.212-1.125.354-.08.698-.177 1.041-.295zm-4.949 13.116v-.001c.899 0 2.179.161 2.179 1.339 0 1.168-1.031 1.409-1.994 1.409-.915 0-2.29-.145-2.29-1.35.005-1.193 1.168-1.397 2.105-1.397zm-.169-6.937v-.001c-1.163 0-1.655-.696-1.655-1.81 0-2.641 3.226-2.614 3.226-.026-.001 1.087-.424 1.837-1.571 1.837z"/><path d="m23 17.277v-2.625c-.423.295-1.031.445-1.549.445-.978 0-1.153-.965-1.153-1.758v-4.88c1.677 0 2.698.054 2.698.054v-2.546h-2.698c0-.734-.027-1.467.079-2.207h-2.999c.095.546.079 1.013.079 2.207h-1.269v2.545c.883-.139.899-.054 1.269-.054v.054h-.026v4.698c0 2.33.333 4.591 3.162 4.591.794.001 1.704-.133 2.407-.524z"/><path d="m13.492 0c-1.057 0-1.824.931-1.824 1.966 0 1.018.777 1.94 1.824 1.94 1.02 0 1.787-.937 1.787-1.94 0-1.001-.741-1.966-1.787-1.966z"/><path d="m12.016 5.957c.095.792.085 10.699 0 11.668h2.936c-.085-.963-.095-10.886 0-11.668z"/>
  </symbol>
  <symbol id="icon-gitlab" xmlns="http://www.w3.org/2000/svg" xmlns:xlink="http://www.w3.org/1999/xlink" version="1.1" x="0px" y="0px" viewBox="0 0 512 512" style="enable-background:new 0 0 512 512;" xml:space="preserve">
    <g><path id="path66_17_" style="fill:#FFA100;" d="M29.653,201.648L29.653,201.648L0.957,289.816 c-2.599,8.006,0.208,16.843,7.07,21.834l247.972,180.183l-79.366-155.859L29.653,201.648L29.653,201.648z"/><path id="path66_6_" style="fill:#FFA100;" d="M482.347,201.648L482.347,201.648l28.696,88.168 c2.599,8.006-0.208,16.843-7.07,21.834L256.001,491.832l87.212-184.854L482.347,201.648L482.347,201.648z"/><path id="path58_18_" style="fill:#FF6D18;" d="M256,491.832l-0.001-178.6l-94.302-111.585l-65.97-32.822l-66.074,32.822 L256,491.832L256,491.832z"/><path id="path58_17_" style="fill:#FF6D18;" d="M256,491.832l0.001-189.402l94.302-100.783l71.367-32.822l60.677,32.822 L256,491.832L256,491.832z"/><path id="path50_10_" style="fill:#FC3819;" d="M256,491.832L256,491.832l94.302-290.185H161.698L256,491.832L256,491.832z"/><path id="path74_3_" style="fill:#FC3819;" d="M29.654,201.65h132.148L104.929,26.874c-2.911-8.942-15.596-8.942-18.611,0 L29.654,201.65L29.654,201.65z"/><path id="path86_3_" style="fill:#FC3819;" d="M482.346,201.65H350.198l56.769-174.776c2.911-8.942,15.596-8.942,18.611,0 L482.346,201.65L482.346,201.65z"/></g>
  </symbol>
  <symbol id="icon-github" version="1.1" xmlns="http://www.w3.org/2000/svg" xmlns:xlink="http://www.w3.org/1999/xlink" x="0px" y="0px" viewBox="0 0 291.32 291.32" style="enable-background:new 0 0 291.32 291.32;" xml:space="preserve">
    <g><path style="fill:#2B414D;" d="M145.66,0C65.219,0,0,65.219,0,145.66c0,80.45,65.219,145.66,145.66,145.66 s145.66-65.21,145.66-145.66C291.319,65.219,226.1,0,145.66,0z M186.462,256.625c-0.838-11.398-1.775-25.518-1.83-31.235 c-0.364-4.388-0.838-15.549-11.434-22.677c42.068-3.523,62.087-26.774,63.526-57.499c1.202-17.497-5.754-32.883-18.107-45.3 c0.628-13.282-0.401-29.023-1.256-35.941c-9.486-2.731-31.608,8.949-37.79,13.947c-13.037-5.062-44.945-6.837-64.336,0 c-13.747-9.668-29.396-15.64-37.926-13.974c-7.875,17.452-2.813,33.948-1.275,35.914c-10.142,9.268-24.289,20.675-20.447,44.572 c6.163,35.04,30.816,53.94,70.508,58.564c-8.466,1.73-9.896,8.048-10.606,10.788c-26.656,10.997-34.275-6.791-37.644-11.425 c-11.188-13.847-21.23-9.832-21.849-9.614c-0.601,0.218-1.056,1.092-0.992,1.511c0.564,2.986,6.655,6.018,6.955,6.263 c8.257,6.154,11.316,17.27,13.2,20.438c11.844,19.473,39.374,11.398,39.638,11.562c0.018,1.702-0.191,16.032-0.355,27.184 C64.245,245.992,27.311,200.2,27.311,145.66c0-65.365,52.984-118.348,118.348-118.348S264.008,80.295,264.008,145.66 C264.008,196.668,231.69,239.992,186.462,256.625z"/></g>
  </symbol>
  <symbol id="icon-html" viewBox="-30 0 512 512" xmlns="http://www.w3.org/2000/svg">
    <path d="m0 0 31.800781 448.101562 194.398438 63.898438 194.398437-63.898438 31.800782-448.101562zm0 0" fill="#ff7816"/><path d="m452.398438 0-31.800782 448.101562-194.398437 63.898438v-512zm0 0" fill="#ff4b00"/><path d="m367.5 136h-222.300781l5.398437 75h211.503906l-12.902343 181.597656-123 41.101563-123-41.101563-4.199219-60.597656h60l1.199219 16.5 66 21.898438 66-21.898438 5.398437-77.5h-203.097656l-13.800781-195h291zm0 0" fill="#ececf1"/><g fill="#e2e2e7"><path d="m362.101562 211-12.902343 181.597656-123 41.101563v-63.300781l66-21.898438 5.398437-77.5h-71.398437v-60zm0 0"/><path d="m371.699219 76-4.199219 60h-141.300781v-60zm0 0"/></g>
  </symbol>
  <symbol id="icon-css" version="1.1" xmlns="http://www.w3.org/2000/svg" xmlns:xlink="http://www.w3.org/1999/xlink" x="0px" y="0px" viewBox="0 0 512 512" style="enable-background:new 0 0 512 512;" xml:space="preserve">
    <path style="fill:#2196F3;" d="M434.582,110.165c-2.02-2.227-4.887-3.497-7.893-3.499H85.355 c-5.891-0.026-10.688,4.728-10.714,10.619c-0.002,0.351,0.014,0.701,0.047,1.05l32,341.333c0.413,4.379,3.471,8.055,7.701,9.259 l149.333,42.667c0.964,0.274,1.963,0.41,2.965,0.405c1.144-0.001,2.282-0.181,3.371-0.533l128-42.667 c4.015-1.336,6.86-4.918,7.253-9.131l32-341.333C437.592,115.35,436.6,112.384,434.582,110.165z"/><g><path style="fill:#FAFAFA;" d="M266.689,426.667c-0.989-0.006-1.973-0.15-2.923-0.427l-74.667-21.333 c-3.665-1.043-6.495-3.963-7.424-7.659l-10.667-42.667c-1.558-5.681,1.785-11.55,7.466-13.108 c5.681-1.558,11.55,1.785,13.108,7.466c0.044,0.159,0.083,0.318,0.119,0.479l9.173,36.693l65.813,18.816l64.853-18.539 l19.2-173.035h-190.72c-5.891,0-10.667-4.776-10.667-10.667c0-5.891,4.776-10.667,10.667-10.667h202.667 c5.891-0.036,10.695,4.711,10.731,10.602c0.002,0.414-0.019,0.827-0.065,1.238l-21.333,192c-0.484,4.3-3.518,7.882-7.68,9.067 l-74.667,21.333C268.704,426.537,267.698,426.674,266.689,426.667z"/><path style="fill:#FAFAFA;" d="M352.022,298.667H170.689c-5.891,0-10.667-4.776-10.667-10.667s4.776-10.667,10.667-10.667h181.333 c5.891,0,10.667,4.776,10.667,10.667S357.913,298.667,352.022,298.667z"/></g><g><path style="fill:#37474F;" d="M192.022,64h-42.667c-5.891,0-10.667-4.776-10.667-10.667V10.667C138.689,4.776,143.464,0,149.355,0 h42.667c5.891,0,10.667,4.776,10.667,10.667s-4.776,10.667-10.667,10.667h-32v21.333h32c5.891,0,10.667,4.776,10.667,10.667 S197.913,64,192.022,64z"/><path style="fill:#37474F;" d="M277.355,64h-42.667c-5.891,0-10.667-4.776-10.667-10.667s4.776-10.667,10.667-10.667h16.917 l-24.469-24.448c-4.171-4.16-4.179-10.914-0.019-15.085c2.006-2.011,4.731-3.139,7.571-3.134h42.667 c5.891,0,10.667,4.776,10.667,10.667s-4.776,10.667-10.667,10.667h-16.917l24.448,24.448c4.171,4.16,4.179,10.914,0.019,15.085 C282.904,62.872,280.188,63.999,277.355,64z"/><path style="fill:#37474F;" d="M362.689,64h-42.667c-5.891,0-10.667-4.776-10.667-10.667s4.776-10.667,10.667-10.667h16.917 L312.47,18.219c-4.171-4.16-4.179-10.914-0.019-15.085c2.006-2.011,4.731-3.139,7.571-3.134h42.667 c5.891,0,10.667,4.776,10.667,10.667s-4.776,10.667-10.667,10.667h-16.917l24.448,24.448c4.171,4.16,4.179,10.914,0.019,15.085 C368.238,62.872,365.521,63.999,362.689,64z"/></g>
  </symbol>
  <symbol id="icon-javascript" enable-background="new 0 0 512 512" viewBox="0 0 512 512" xmlns="http://www.w3.org/2000/svg">
    <g><path d="m0 0h512v512h-512z" fill="#ffdf00"/><path d="m343.934 400.002c10.313 16.839 23.731 29.216 47.462 29.216 19.935 0 32.67-9.964 32.67-23.731 0-16.498-13.084-22.341-35.027-31.939l-12.028-5.161c-34.719-14.791-57.783-33.321-57.783-72.493 0-36.084 27.494-63.553 70.461-63.553 30.59 0 52.582 10.646 68.429 38.522l-37.465 24.056c-8.249-14.791-17.148-20.618-30.964-20.618-14.092 0-23.024 8.94-23.024 20.618 0 14.434 8.94 20.277 29.582 29.217l12.028 5.152c40.879 17.53 63.959 35.401 63.959 75.581 0 43.317-34.028 67.048-79.726 67.048-44.682 0-73.549-21.293-87.674-49.201zm-169.96 4.169c7.558 13.41 14.434 24.747 30.964 24.747 15.807 0 25.779-6.185 25.779-30.232v-163.597h48.112v164.246c0 49.818-29.208 72.493-71.843 72.493-38.522 0-60.83-19.936-72.176-43.947z"/></g>
  </symbol>
  <symbol id="icon-typescript" enable-background="new 0 0 512 512" viewBox="0 0 512 512" xmlns="http://www.w3.org/2000/svg">
    <g><path d="m50 0h412c27.614 0 50 22.386 50 50v412c0 27.614-22.386 50-50 50h-412c-27.614 0-50-22.386-50-50v-412c0-27.614 22.386-50 50-50z" fill="#3178c6"/><path d="m50 0h412c27.614 0 50 22.386 50 50v412c0 27.614-22.386 50-50 50h-412c-27.614 0-50-22.386-50-50v-412c0-27.614 22.386-50 50-50z" fill="#3178c6"/><path clip-rule="evenodd" d="m316.939 407.424v50.061c8.138 4.172 17.763 7.3 28.875 9.386s22.823 3.129 35.135 3.129c21.219 0 44.448-3.035 62.602-14.784 18.064-11.691 26.449-31.14 26.449-52.172 0-15.637-4.851-30.684-15.807-42.081-16.429-17.091-39.516-24.022-60.255-34.183-10.389-5.09-24.727-12.992-24.727-26.361 0-3.441.887-6.543 2.661-9.307 7.132-11.113 22.973-13.376 35.057-13.376 13.717 0 28.189 3.071 40.926 8.76 4.434 1.982 8.529 4.276 12.285 6.884v-46.776c-7.616-2.92-15.937-5.084-24.962-6.492s-19.381-2.112-31.066-2.112c-11.895 0-23.163 1.278-33.805 3.833s-20.006 6.544-28.093 11.967c-8.086 5.424-14.476 12.333-19.171 20.729-4.695 8.395-7.043 18.433-7.043 30.114 0 14.914 4.304 27.638 12.912 38.172 8.607 10.533 21.675 19.45 39.204 26.751 11.792 4.822 24.053 9.581 34.665 16.739 7.355 4.96 14.007 11.877 14.007 21.275 0 6.821-3.856 12.604-9.468 16.192-8.303 5.308-18.936 6.492-28.563 6.492-10.851 0-21.597-1.903-32.24-5.71-10.641-3.806-20.501-9.516-29.578-17.13zm-84.159-123.342h64.22v-41.082h-179v41.082h63.906v182.918h50.874z" fill="#fff" fill-rule="evenodd"/></g>
  </symbol>
  <symbol id="icon-react" version="1.1" xmlns="http://www.w3.org/2000/svg" xmlns:xlink="http://www.w3.org/1999/xlink" x="0px" y="0px" viewBox="0 0 470.727 470.727" style="enable-background:new 0 0 470.727 470.727;" xml:space="preserve">
    <path style="fill:#4DCFE0;" d="M445.91,306.155c-5.747-21.943-21.42-45.975-43.886-70.531c22.465-24.555,38.139-49.11,43.886-70.531 c4.702-17.763,3.135-33.959-4.18-47.02l0,0c-18.808-32.392-66.873-37.094-122.776-25.078C301.192,38.661,273.502,0,235.363,0 c-35.004,0-64.784,35.527-83.592,92.996c-6.792-1.567-13.061-2.612-19.853-3.657c-51.2-7.314-88.294,2.612-102.922,28.735 c-7.314,13.061-8.882,29.257-4.18,47.02c5.747,21.943,21.42,45.976,43.886,70.531c-22.465,24.555-38.139,49.11-43.886,70.531 c-4.702,17.763-3.135,33.959,4.18,47.02C41.012,373.551,66.09,384,101.094,384c9.404,0,19.853-1.045,30.824-2.612 c6.269-1.045,13.061-2.09,19.853-3.657c18.286,57.469,48.588,92.996,83.592,92.996c38.139,0,65.829-38.661,83.069-92.996 c18.286,4.18,35.527,6.269,51.722,6.269c32.914,0,58.514-9.404,71.576-31.347l0,0C449.045,340.114,450.612,323.918,445.91,306.155z M370.155,118.073c22.465,0,38.661,5.747,44.931,16.196c3.135,5.747,3.657,13.584,1.045,22.988 c-4.18,15.151-16.196,35.004-35.527,56.947c-13.061-12.016-28.212-24.033-44.408-35.527c-2.09-18.808-5.224-37.616-8.882-54.857 C342.988,119.641,357.616,118.073,370.155,118.073z M271.412,297.273c-12.016,6.792-24.555,13.061-36.049,18.808 c-12.016-5.747-24.033-12.016-36.049-18.808c-12.539-6.792-23.51-14.106-34.482-21.42c-1.045-13.061-1.567-26.645-1.567-40.229 s0.522-27.167,1.567-40.229c10.971-7.314,21.943-14.106,34.482-21.42c12.016-6.792,24.033-13.061,36.049-18.808 c12.016,5.747,24.033,12.016,36.049,18.808c12.539,6.792,23.51,14.106,34.482,21.42c1.045,13.061,1.567,26.645,1.567,40.229 c0,13.584-0.522,27.167-1.567,40.229C295.445,283.167,283.951,290.482,271.412,297.273z M301.192,316.082 c-1.567,8.359-3.135,16.196-4.702,24.033c-7.837-2.612-15.673-5.224-23.51-8.359c4.702-2.612,9.404-5.224,14.106-7.837 C291.788,321.829,296.49,318.694,301.192,316.082z M197.747,332.278c-7.837,3.135-15.673,5.747-23.51,7.837 c-1.567-7.837-3.135-15.673-4.702-24.033c4.702,2.612,9.404,5.747,14.106,8.359C188.343,327.053,193.045,329.665,197.747,332.278z M131.918,251.82c-6.792-5.747-13.061-10.971-19.331-16.196c5.747-5.224,12.539-10.971,19.331-16.196c0,5.224,0,10.971,0,16.196 C131.918,241.371,131.918,246.596,131.918,251.82z M169.535,155.167c1.567-8.359,3.135-16.196,4.702-24.033 c7.837,2.09,15.151,5.225,23.51,7.837c-4.702,2.612-9.404,5.224-14.106,7.837C178.939,149.42,174.237,152.555,169.535,155.167z M272.98,138.971c7.837-3.135,16.196-5.747,23.51-8.359c1.567,7.837,3.135,15.673,4.702,24.033 c-4.702-2.612-9.404-5.747-14.106-8.359C282.384,144.196,277.682,141.584,272.98,138.971z M338.286,219.429 c6.792,5.747,13.061,10.971,19.331,16.196c-5.747,5.224-12.539,10.971-19.331,16.196c0-5.747,0.522-10.971,0.522-16.196 C338.808,230.4,338.808,224.653,338.286,219.429z M187.82,86.204c13.584-34.482,31.347-54.857,47.543-54.857 s33.959,20.376,47.543,54.335c2.09,4.702,3.657,9.927,5.747,15.151c-17.241,5.224-35.004,12.016-52.767,19.853 c-17.763-7.837-36.049-14.629-53.29-19.853C184.163,95.608,185.731,90.906,187.82,86.204z M56.163,133.747 c5.747-10.449,21.943-15.673,43.886-15.673c12.539,0,27.167,1.567,43.363,5.224c-3.657,17.241-6.792,35.527-8.882,54.857 c-16.196,11.494-30.824,23.51-43.886,35.527c-19.853-21.42-31.347-41.273-35.527-56.947 C52.506,147.331,53.029,139.494,56.163,133.747z M56.163,337.502c-3.135-5.747-3.657-13.584-1.045-22.988 c4.18-15.151,16.196-35.004,35.527-56.947c13.061,12.016,28.212,24.033,43.886,35.527c2.09,19.331,4.702,37.616,8.882,54.857 C98.482,357.355,65.567,353.698,56.163,337.502z M282.906,385.567c-13.584,33.959-31.347,54.335-47.543,54.335 s-33.959-20.376-47.543-54.857c-2.09-4.702-3.657-9.927-5.224-15.151c17.241-5.224,35.004-12.016,53.29-19.853 c17.763,7.837,35.527,14.629,52.767,19.853C286.563,375.641,284.996,380.343,282.906,385.567z M414.563,337.502 c-9.404,16.196-42.318,20.376-87.771,10.971c4.18-17.763,6.792-36.049,8.882-54.857c16.196-11.494,30.824-23.51,44.408-35.527 c19.853,21.42,31.347,41.273,35.527,56.947C418.22,323.918,417.698,331.755,414.563,337.502z"/><path style="fill:#D4E1F4;" d="M235.363,188.604c-26.122,0-47.02,20.898-47.02,47.02s20.898,47.02,47.02,47.02 c26.122,0,47.02-20.898,47.02-47.02S261.486,188.604,235.363,188.604z"/>
  </symbol>
  <symbol id="icon-redux" xmlns="http://www.w3.org/2000/svg" viewBox="0 0 333333 316450" shape-rendering="geometricPrecision" text-rendering="geometricPrecision" image-rendering="optimizeQuality" fill-rule="evenodd" clip-rule="evenodd">
    <path d="M230965 221006c12301-1273 21633-11878 21209-24604-423-12725-11029-22906-23754-22906h-848c-13151 424-23331 11453-22906 24603 424 6363 2969 11878 6786 15695-14422 28422-36479 49207-69565 66599-22482 11878-45811 16120-69141 13151-19089-2546-33935-11029-43269-25029-13573-20785-14845-43268-3392-65750 8060-16120 20784-27997 28844-33936-1696-5515-4242-14846-5514-21633-61507 44541-55143 104776-36480 133197 13998 21211 42418 34361 73807 34361 8483 0 16966-849 25450-2969 54296-10606 95442-42845 118771-90779zm74656-52600c-32238-37754-79746-58539-134042-58539h-6786c-3818-7635-11878-12727-20785-12727h-849c-13148 424-23328 11453-22905 24604 424 12725 11028 22906 23754 22906h848c9332-425 17392-6363 20785-14423h7635c32238 0 62779 9332 90352 27573 21208 13999 36479 32239 44962 54297 7211 17817 6787 35208-849 50056-11876 22482-31813 34784-58112 34784-16967 0-33086-5091-41570-8909-4665 4242-13150 11028-19088 15272 18241 8483 36905 13150 54720 13150 40722 0 70839-22483 82292-44965 12301-24604 11452-67023-20361-103079zM90137 228216c424 12726 11029 22906 23754 22906h849c13150-423 23330-11453 22905-24603-423-12726-11029-22906-23754-22906h-848c-849 0-2122 0-2969 423-17392-28845-24603-60234-22057-94170 1695-25452 10180-47510 25026-65751 12301-15695 36055-23331 52174-23754 44962-849 64050 55144 65323 77628 5515 1272 14846 4242 21210 6363C246659 35633 204241 0 163521 0c-38177 0-73384 27573-87383 68296-19512 54297-6786 106472 16968 147620-2120 2969-3393 7635-2969 12302v-1z" fill="#764abc"/>
  </symbol>
  <symbol id="icon-jest" viewBox="0 0 256 283" xmlns="http://www.w3.org/2000/svg" preserveAspectRatio="xMidYMid">
    <path d="M239.973 139.203c0-14.534-11.782-26.316-26.316-26.316-.935 0-1.857.05-2.766.145L247.036 6.427H93.432l36.094 106.513a26.437 26.437 0 0 0-1.6-.053c-14.533 0-26.315 11.782-26.315 26.316 0 11.748 7.699 21.694 18.326 25.078-5.613 9.722-12.675 18.478-20.693 26.042-10.903 10.286-23.381 18.085-36.876 22.891-16.068-8.254-23.656-26.612-16.81-42.707.774-1.817 1.563-3.66 2.318-5.494 11.64-2.717 20.314-13.153 20.314-25.621 0-14.534-11.782-26.316-26.316-26.316-14.535 0-26.317 11.782-26.317 26.316 0 8.913 4.435 16.784 11.213 21.545-6.514 14.831-16.088 30.351-19.071 48.339-3.575 21.559-.011 44.443 18.634 57.366 43.424 30.096 90.56-18.657 140.259-30.913 18.01-4.442 37.782-3.726 53.65-12.917 11.918-6.902 19.774-18.34 22.004-31.182 2.202-12.686-1.01-25.317-8.393-35.559a26.207 26.207 0 0 0 6.12-16.868zm-85.732.093l.003-.093c0-9.544-5.082-17.902-12.686-22.515l28.728-58.091 28.778 58.707c-7.067 4.718-11.724 12.764-11.724 21.899 0 .192.01.381.015.572l-33.114-.479z" fill="#C63D14"/><path d="M246.399 139.203c0-15.985-11.517-29.323-26.688-32.172L256 0H84.466l36.344 107.248c-14.643 3.259-25.627 16.345-25.627 31.955 0 11.723 6.195 22.02 15.48 27.806-4.466 6.653-9.762 12.914-15.831 18.639-9.624 9.08-20.347 15.966-31.907 20.496-11.643-7.314-16.565-21.106-11.453-33.122l.4-.94.751-1.768c12.788-4.459 21.993-16.632 21.993-30.922 0-18.055-14.689-32.743-32.744-32.743S9.129 121.337 9.129 139.392c0 9.113 3.745 17.365 9.773 23.307a551.638 551.638 0 0 1-3.423 7.124C9.967 181.144 3.72 193.976 1.357 208.225c-4.693 28.299 2.876 50.921 21.313 63.699 11.188 7.754 22.549 10.804 33.982 10.803 21.529-.001 43.306-10.816 64.606-21.396 15.341-7.619 31.203-15.498 46.872-19.362 5.83-1.438 11.829-2.303 18.18-3.219 12.594-1.817 25.618-3.695 37.154-10.376 13.371-7.745 22.525-20.737 25.113-35.644 2.222-12.797-.453-25.613-6.975-36.483a32.544 32.544 0 0 0 4.797-17.044zm-12.854 0c0 10.967-8.922 19.89-19.89 19.89-10.966 0-19.889-8.923-19.889-19.89s8.923-19.889 19.889-19.889c10.968 0 19.89 8.922 19.89 19.889zm4.524-126.349l-32.045 94.513a32.348 32.348 0 0 0-4.058 1.258L170.31 44.047l-31.748 64.196a32.34 32.34 0 0 0-4.232-1.15l-31.935-94.239h135.674zm-110.143 106.46c10.967 0 19.889 8.922 19.889 19.889 0 10.967-8.922 19.89-19.889 19.89-10.966 0-19.889-8.923-19.889-19.89s8.923-19.889 19.889-19.889zm-86.054.189c10.968 0 19.89 8.922 19.89 19.889 0 10.967-8.922 19.89-19.89 19.89-10.966 0-19.889-8.923-19.889-19.89s8.923-19.889 19.889-19.889zm194.04 71.028c-1.935 11.148-8.821 20.887-18.891 26.719-9.387 5.437-20.636 7.06-32.546 8.777-6.38.92-12.978 1.872-19.423 3.462-17.042 4.202-33.549 12.401-49.512 20.33-31.945 15.867-59.534 29.569-85.547 11.54-19.055-13.206-18.175-37.641-15.955-51.031 2.057-12.405 7.619-23.83 12.998-34.879a748.863 748.863 0 0 0 2.722-5.646 32.459 32.459 0 0 0 8.462 2.124c-5.475 18.071 3.136 37.719 21.209 47.004l2.473 1.271 2.62-.933c14.288-5.088 27.453-13.254 39.131-24.271 7.549-7.121 14.036-15 19.37-23.419a32.9 32.9 0 0 0 4.903.368c18.055 0 32.744-14.688 32.744-32.744 0-9.71-4.253-18.442-10.989-24.444l20.578-41.612 20.787 42.405c-6.237 5.966-10.134 14.359-10.134 23.651 0 18.056 14.688 32.744 32.743 32.744a32.549 32.549 0 0 0 18.672-5.868c3.68 7.533 5.051 16.009 3.585 24.452z" fill="#FFF"/>
  </symbol>
  <symbol id="icon-sass" enable-background="new 0 0 512 512" viewBox="0 0 512 512" xmlns="http://www.w3.org/2000/svg">
    <g><path clip-rule="evenodd" d="m256.001 0c141.384 0 255.999 114.616 255.999 256 0 141.385-114.615 256-255.999 256-141.385 0-256.001-114.615-256.001-256 0-141.384 114.616-256 256.001-256z" fill="#c69" fill-rule="evenodd"/><g><path d="m416.581 109.572c-11.593-45.467-86.981-60.414-158.332-35.065-42.462 15.086-88.431 38.762-121.483 69.678-39.299 36.758-45.566 68.752-42.983 82.12 9.112 47.171 73.746 78.004 100.315 100.88v.139c-7.835 3.856-65.177 32.876-78.597 62.545-14.16 31.299 2.254 53.759 13.121 56.782 33.669 9.368 68.219-7.482 86.787-35.176 17.917-26.727 16.426-61.241 8.639-78.408 10.741-2.834 23.264-4.104 39.178-2.245 44.907 5.245 53.718 33.285 52.033 45.019-1.684 11.736-11.103 18.188-14.253 20.135-3.149 1.949-4.111 2.624-3.846 4.072.382 2.105 1.84 2.027 4.525 1.572 3.697-.623 23.582-9.546 24.431-31.207 1.083-27.503-25.273-58.266-71.939-57.463-19.219.332-31.304 2.16-40.034 5.408-.646-.735-1.302-1.466-1.981-2.191-28.85-30.781-82.184-52.554-79.922-93.934.823-15.044 6.052-54.657 102.48-102.707 78.992-39.361 142.229-28.53 153.157-4.525 15.611 34.295-33.797 98.037-115.829 107.232-31.254 3.504-47.711-8.61-51.805-13.121-4.31-4.75-4.952-4.964-6.561-4.073-2.621 1.452-.96 5.645 0 8.144 2.45 6.374 12.5 17.678 29.636 23.301 15.074 4.947 51.769 7.664 96.148-9.501 49.702-19.225 88.515-72.707 77.115-117.411zm-211.456 231.703c3.724 13.777 3.316 26.625-.532 38.26-3.06 9.254-8.322 17.645-14.89 24.811-14.874 16.227-35.656 22.362-44.567 17.193-9.623-5.578-4.803-28.457 12.443-46.686 18.552-19.612 45.245-32.222 45.245-32.222l-.04-.08c.768-.414 1.549-.84 2.341-1.276z" fill="#fff"/></g></g>
  </symbol>
  <symbol id="icon-emmet" viewBox="0 0 256 256" xmlns="http://www.w3.org/2000/svg" preserveAspectRatio="xMinYMin meet">
    <circle fill="#1C1C20" cx="127.555" cy="128.184" r="127.555"/><path d="M178.496 124.737l-14.205-14.205 7.306-30.035-30.441 6.9-13.8-13.8 68.187-17.047-17.047 68.187z" fill="#BAFFA9"/><path d="M154.956 218.901L33.192 97.138 101.38 80.09l13.8 13.8-48.706 12.176 27.6 27.6 32.064-7.712-8.117 31.658 27.6 27.6 12.176-48.705 14.205 14.206-17.046 68.187z" fill="#7ACB16"/>
  </symbol>
  <symbol id="icon-figma" enable-background="new 0 0 512 512" viewBox="0 0 512 512" xmlns="http://www.w3.org/2000/svg">
    <g><path d="m256.599 256c0-47.128 38.205-85.333 85.333-85.333 47.128 0 85.333 38.206 85.333 85.333 0 47.129-38.206 85.333-85.333 85.333-47.129 0-85.333-38.205-85.333-85.333z" fill="#00bcff"/><path d="m85.932 426.667c0-47.128 38.205-85.333 85.333-85.333l45.475-24.009 39.858 24.009v85.333c0 47.129-38.205 85.333-85.333 85.333-47.128 0-85.333-38.205-85.333-85.333z" fill="#00cf7f"/><path d="m256.599 0-46.434 80.67 46.434 89.996h84.136c47.129 0 85.333-38.205 85.333-85.333 0-47.128-38.205-85.333-85.333-85.333z" fill="#ff7361"/><path d="m84.734 85.333c0 47.128 38.205 85.333 85.333 85.333l45.267 17.484 41.263-17.484v-170.666h-86.531c-47.127 0-85.332 38.205-85.332 85.333z" fill="#ff4d12"/><path d="m85.932 256c0 47.129 38.205 85.333 85.333 85.333h85.333v-170.667h-85.333c-47.128 0-85.333 38.206-85.333 85.334z" fill="#b659ff"/></g>
  </symbol>
  <symbol id="icon-chrome-devtools" viewBox="0 0 1522 1522" xmlns="http://www.w3.org/2000/svg" xmlns:xlink="http://www.w3.org/1999/xlink" fill="none">
    <style>.e{fill:#fff}.a{stroke:#fff}.b{stop-color:#fff}.c{stop-color:#1a237e}.d{stop-opacity:0}.f{stop-opacity:.12}</style>
    <rect id="d" width="1520" height="1520" rx="120"/>
    <radialGradient id="f" cx="15%" cy="14%" r="100%">
    <stop class="b f" offset="0"/>
    <stop class="b d" offset="1"/>
    </radialGradient>
    <radialGradient id="g" cx="-.2%" cy=".1%" r="136%">
    <stop class="c" offset="0" stop-opacity=".2"/>
    <stop class="c d" offset="1"/>
    </radialGradient>
    <radialGradient id="h" cx="85%" cy="13%" r="154%">
    <stop class="c f" offset="0"/>
    <stop class="c d" offset="1"/>
    </radialGradient>
    <radialGradient id="i" cx="41%" cy="0" r="57%">
    <stop class="c" offset="0" stop-opacity=".15"/>
    <stop class="c d" offset="1"/>
    </radialGradient>
    <path id="a" d="M761 1361a600 600 0 1 0 0-1200 600 600 0 0 0 0 1200z"/>
    <mask id="j" width="120" height="120" x="0" y="0" class="e">
    <use xlink:href="#a"/>
    </mask>
    <circle id="b" cx="761" cy="761" r="280"/>
    <mask id="k" width="56" height="56" x="0" y="0" class="e">
    <use xlink:href="#b"/>
    </mask>
    <circle id="c" cx="761" cy="761" r="200"/>
    <mask id="l" width="40" height="40" x="0" y="0" class="e">
    <use xlink:href="#c"/>
    </mask>
    <use fill="#2879ff" xlink:href="#d"/>
    <g stroke-opacity=".2" stroke-width="5" class="a">
    <path d="m-199-199 1920 1920m0-1920L-199 1721M1038.5-199v1920m-555-1920v1920M1721 1038.5H-199m1920-555H-199"/>
    <circle cx="761" cy="761" r="390"/>
    <path d="M-199 761h1920M761-199v1920"/>
    </g>
    <circle cx="761" cy="761" r="600" fill="url(#f)"/>
    <path d="M1400 0H120C54 0 0 54 0 120v10C0 64 54 10 120 10h1280c66 0 120 54 120 120v-10c0-66-54-120-120-120z" class="e" opacity=".2"/>
    <path fill="#000000" d="M1401 1511H121c-66 0-120-54-120-120v10c0 66 54 120 120 120h1280c66 0 120-54 120-120v-10c0 66-54 120-120 120z" opacity=".1"/>
    <path fill="url(#g)" d="M495.9 675.8 251 431l267.2 458.3a273.7 273.7 0 0 1-22.4-213.5z"/>
    <path fill="url(#h)" d="M820.7 1031 731 1365.6 996.6 901a274.2 274.2 0 0 1-176 130z"/>
    <path fill="url(#i)" d="m962 575.3 334.2-89.3H759.7A273.7 273.7 0 1 0 962 575.3z"/>
    <g stroke-width="40" class="a">
    <use mask="url(#j)" xlink:href="#a"/>
    <use mask="url(#k)" xlink:href="#b"/>
    <use mask="url(#l)" xlink:href="#c"/>
    </g>
    <path d="M761 481h530v20H761zm242.5 420-265 459-17.3-10 265-459zm-485 0-265-459 17.3-10 265 459z" class="e"/>
  </symbol>
  <symbol id="icon-vs-code" viewBox="-11.9 -2 1003.9 995.6" xmlns="http://www.w3.org/2000/svg">
    <path d="m12.1 353.9s-24-17.3 4.8-40.4l67.1-60s19.2-20.2 39.5-2.6l619.2 468.8v224.8s-.3 35.3-45.6 31.4z" fill="#2489ca"/><path d="m171.7 498.8-159.6 145.1s-16.4 12.2 0 34l74.1 67.4s17.6 18.9 43.6-2.6l169.2-128.3z" fill="#1070b3"/><path d="m451.9 500 292.7-223.5-1.9-223.6s-12.5-48.8-54.2-23.4l-389.5 354.5z" fill="#0877b9"/><path d="m697.1 976.2c17 17.4 37.6 11.7 37.6 11.7l228.1-112.4c29.2-19.9 25.1-44.6 25.1-44.6v-671.2c0-29.5-30.2-39.7-30.2-39.7l-197.7-95.3c-43.2-26.7-71.5 4.8-71.5 4.8s36.4-26.2 54.2 23.4v887.5c0 6.1-1.3 12.1-3.9 17.5-5.2 10.5-16.5 20.3-43.6 16.2z" fill="#3c99d4"/>
  </symbol>
  <symbol id="icon-jira" xmlns="http://www.w3.org/2000/svg" xmlns:xlink="http://www.w3.org/1999/xlink" version="1.1" x="0px" y="0px" viewBox="0 0 512 512" style="enable-background:new 0 0 512 512;" xml:space="preserve">
    <g><path style="fill:#2684FF;" d="M490.787,0H244.296c0,61.44,49.737,111.177,111.176,111.177h45.348v43.886 c0,61.44,49.736,111.176,111.176,111.176V21.212C511.997,9.509,502.488,0,490.787,0z"/><linearGradient id="SVGID_1_" gradientUnits="userSpaceOnUse" x1="384.7825" y1="2310.8059" x2="279.9034" y2="2202.6494" gradientTransform="matrix(1 0 0 -1 0 2434)"><stop offset="0.176" style="stop-color:#0052CC"/><stop offset="1" style="stop-color:#2684FF"/></linearGradient><path style="fill:url(#SVGID_1_);" d="M368.641,122.88H122.149c0,61.44,49.737,111.176,111.177,111.176h45.348v43.887 c0,61.44,49.739,111.176,111.179,111.176V144.092C389.853,132.388,380.342,122.88,368.641,122.88z"/><linearGradient id="SVGID_00000105396414501607809940000012355472484220212640_" gradientUnits="userSpaceOnUse" x1="269.6977" y1="2187.2896" x2="148.4327" y2="2069.3037" gradientTransform="matrix(1 0 0 -1 0 2434)"><stop offset="0.176" style="stop-color:#0052CC"/><stop offset="1" style="stop-color:#2684FF"/></linearGradient><path style="fill:url(#SVGID_00000105396414501607809940000012355472484220212640_);" d="M246.495,245.76H0.003 c0,61.44,49.737,111.176,111.177,111.176h45.348v43.887c0,61.44,49.739,111.177,111.179,111.177V266.972 C267.707,255.268,258.198,245.76,246.495,245.76z"/></g>
  </symbol>

</svg>